<svg width="38" height="38" viewBox="0 0 38 38" fill="none" xmlns="http://www.w3.org/2000/svg">
<g id="google2 1" clip-path="url(#clip0_19_404)">
<path id="Vector" d="M36.2654 15.8344L20.9209 15.8336C20.2433 15.8336 19.6941 16.3828 19.6941 17.0604V21.9622C19.6941 22.6397 20.2433 23.189 20.9208 23.189H29.5619C28.6157 25.6445 26.8496 27.701 24.5965 29.0077L28.281 35.386C34.1915 31.9677 37.6858 25.97 37.6858 19.2561C37.6858 18.3001 37.6153 17.6167 37.4744 16.8472C37.3673 16.2626 36.8597 15.8344 36.2654 15.8344Z" fill="#167EE6"/>
<path id="Vector_2" d="M18.8762 30.5541C14.6474 30.5541 10.9557 28.2436 8.97302 24.8246L2.59497 28.5008C5.84072 34.1262 11.921 37.9143 18.8762 37.9143C22.2881 37.9143 25.5075 36.9957 28.2809 35.3947V35.386L24.5964 29.0076C22.911 29.9852 20.9607 30.5541 18.8762 30.5541Z" fill="#12B347"/>
<path id="Vector_3" d="M28.281 35.3948V35.386L24.5964 29.0077C22.9111 29.9851 20.9609 30.5541 18.8762 30.5541V37.9144C22.2882 37.9144 25.5078 36.9957 28.281 35.3948Z" fill="#0F993E"/>
<path id="Vector_4" d="M7.42691 19.1048C7.42691 17.0204 7.99575 15.0703 8.97303 13.385L2.59499 9.70874C0.985231 12.4734 0.0666504 15.6841 0.0666504 19.1048C0.0666504 22.5254 0.985231 25.7361 2.59499 28.5008L8.97303 24.8245C7.99575 23.1393 7.42691 21.1892 7.42691 19.1048Z" fill="#FFD500"/>
<path id="Vector_5" d="M18.8762 7.65554C21.6337 7.65554 24.1667 8.6354 26.1452 10.2653C26.6332 10.6673 27.3426 10.6383 27.7897 10.1912L31.2629 6.71808C31.7702 6.21081 31.734 5.38047 31.1921 4.91038C27.8773 2.03465 23.5644 0.295288 18.8762 0.295288C11.921 0.295288 5.84072 4.08342 2.59497 9.70879L8.97302 13.385C10.9557 9.96603 14.6474 7.65554 18.8762 7.65554Z" fill="#FF4B26"/>
<path id="Vector_6" d="M26.1452 10.2653C26.6333 10.6673 27.3428 10.6383 27.7898 10.1912L31.263 6.71808C31.7701 6.21081 31.734 5.38047 31.1922 4.91038C27.8774 2.03458 23.5644 0.295288 18.8762 0.295288V7.65554C21.6337 7.65554 24.1668 8.6354 26.1452 10.2653Z" fill="#D93F21"/>
</g>
<defs>
<clipPath id="clip0_19_404">
<rect width="37.619" height="37.619" fill="white" transform="translate(0.0666504 0.295288)"/>
</clipPath>
</defs>
</svg>
