<svg width="36" height="37" viewBox="0 0 36 37" fill="none" xmlns="http://www.w3.org/2000/svg">
<g id="phone" clip-path="url(#clip0_57_20358)">
<path id="Icon" d="M23.0956 18.2047C21.506 17.6464 19.7966 17.3428 18.0163 17.3428C16.2359 17.3428 14.5265 17.6464 12.9369 18.2047C12.8002 18.2527 12.7319 18.2768 12.6564 18.3182C12.3881 18.4653 12.1766 18.7638 12.1266 19.0657C12.1126 19.1506 12.1126 19.2353 12.1126 19.4047C12.1126 19.9227 12.1126 20.1817 12.067 20.3966C11.8952 21.207 11.2621 21.8401 10.4517 22.0119C10.2369 22.0574 9.97785 22.0574 9.45985 22.0574L9.17112 22.0574C8.3837 22.0574 7.98999 22.0574 7.67164 21.9529C7.0385 21.7451 6.54194 21.2486 6.33414 20.6154C6.22966 20.2971 6.22966 19.9034 6.22966 19.116V18.8824C6.22966 18.0977 6.22966 17.7053 6.34655 17.2888C6.47626 16.8265 6.8164 16.2473 7.15687 15.9088C7.46371 15.6038 7.73213 15.4541 8.26898 15.1546C11.1541 13.5452 14.4781 12.6281 18.0163 12.6281C21.5544 12.6281 24.8784 13.5452 27.7635 15.1546C28.3004 15.4541 28.5688 15.6038 28.8756 15.9088C29.2161 16.2473 29.5562 16.8265 29.686 17.2888C29.8028 17.7053 29.8028 18.0977 29.8028 18.8824V19.116C29.8028 19.9034 29.8028 20.2971 29.6984 20.6154C29.4906 21.2486 28.994 21.7451 28.3609 21.9529C28.0425 22.0574 27.6488 22.0574 26.8614 22.0574H26.5727C26.0546 22.0574 25.7957 22.0574 25.5808 22.0119C24.7704 21.8401 24.1373 21.207 23.9655 20.3966C23.9199 20.1817 23.9199 19.9227 23.9199 19.4047C23.9199 19.2353 23.9199 19.1506 23.9059 19.0657C23.8559 18.7638 23.6444 18.4653 23.3761 18.3182C23.3006 18.2768 23.2323 18.2527 23.0956 18.2047Z" stroke="white" stroke-width="1.19737" stroke-linecap="round" stroke-linejoin="round"/>
</g>
<defs>
<clipPath id="clip0_57_20358">
<rect width="25.1447" height="25.1447" fill="white" transform="translate(35.8628 18.5557) rotate(135)"/>
</clipPath>
</defs>
</svg>
