<svg width="27" height="26" viewBox="0 0 27 26" fill="none" xmlns="http://www.w3.org/2000/svg">
<path d="M24.8453 9.52221C24.8453 8.88749 24.8453 8.57014 24.7198 8.42318C24.6109 8.29567 24.4475 8.22801 24.2804 8.24116C24.0877 8.25633 23.8633 8.48073 23.4145 8.92954L19.6068 12.7372L23.4145 16.5449C23.8633 16.9937 24.0877 17.2181 24.2804 17.2332C24.4475 17.2464 24.6109 17.1787 24.7198 17.0512C24.8453 16.9043 24.8453 16.5869 24.8453 15.9522V9.52221Z" stroke="white" stroke-width="1.19737" stroke-linecap="round" stroke-linejoin="round"/>
<path d="M3.89136 10.4323C3.89136 8.67197 3.89136 7.79182 4.23393 7.11948C4.53527 6.52807 5.0161 6.04724 5.60752 5.7459C6.27986 5.40332 7.16001 5.40332 8.9203 5.40332H14.5779C16.3382 5.40332 17.2183 5.40332 17.8907 5.7459C18.4821 6.04724 18.9629 6.52807 19.2642 7.11948C19.6068 7.79182 19.6068 8.67197 19.6068 10.4323V15.0421C19.6068 16.8024 19.6068 17.6826 19.2642 18.3549C18.9629 18.9463 18.4821 19.4272 17.8907 19.7285C17.2183 20.0711 16.3382 20.0711 14.5779 20.0711H8.9203C7.16001 20.0711 6.27986 20.0711 5.60752 19.7285C5.0161 19.4272 4.53527 18.9463 4.23393 18.3549C3.89136 17.6826 3.89136 16.8024 3.89136 15.0421V10.4323Z" stroke="white" stroke-width="1.19737" stroke-linecap="round" stroke-linejoin="round"/>
<line x1="0.654047" y1="24.639" x2="24.654" y2="1.63901" stroke="white"/>
</svg>
