<svg width="26" height="26" viewBox="0 0 26 26" fill="none" xmlns="http://www.w3.org/2000/svg">
<g id="video-recorder">
<g id="Icon">
<path d="M23.8453 9.52221C23.8453 8.88749 23.8453 8.57014 23.7198 8.42318C23.6109 8.29567 23.4475 8.22801 23.2804 8.24116C23.0877 8.25633 22.8633 8.48073 22.4145 8.92954L18.6068 12.7372L22.4145 16.5449C22.8633 16.9937 23.0877 17.2181 23.2804 17.2332C23.4475 17.2464 23.6109 17.1787 23.7198 17.0512C23.8453 16.9043 23.8453 16.5869 23.8453 15.9522V9.52221Z" stroke="white" stroke-width="1.19737" stroke-linecap="round" stroke-linejoin="round"/>
<path d="M2.89136 10.4323C2.89136 8.67197 2.89136 7.79182 3.23393 7.11948C3.53527 6.52807 4.0161 6.04724 4.60752 5.7459C5.27986 5.40332 6.16001 5.40332 7.9203 5.40332H13.5779C15.3382 5.40332 16.2183 5.40332 16.8907 5.7459C17.4821 6.04724 17.9629 6.52807 18.2642 7.11948C18.6068 7.79182 18.6068 8.67197 18.6068 10.4323V15.0421C18.6068 16.8024 18.6068 17.6826 18.2642 18.3549C17.9629 18.9463 17.4821 19.4272 16.8907 19.7285C16.2183 20.0711 15.3382 20.0711 13.5779 20.0711H7.9203C6.16001 20.0711 5.27986 20.0711 4.60752 19.7285C4.0161 19.4272 3.53527 18.9463 3.23393 18.3549C2.89136 17.6826 2.89136 16.8024 2.89136 15.0421V10.4323Z" stroke="white" stroke-width="1.19737" stroke-linecap="round" stroke-linejoin="round"/>
</g>
</g>
</svg>
