<svg width="25" height="25" viewBox="0 0 25 25" fill="none" xmlns="http://www.w3.org/2000/svg">
<g id="fi_1687775">
<g id="Group">
<path id="Vector" d="M9.09539 13.1592C8.8094 12.8731 8.34563 12.8731 8.05959 13.1592L7.74553 13.4732C7.85271 10.9433 9.94416 8.91792 12.5 8.91792C13.7701 8.91792 14.965 9.41318 15.8647 10.3125C16.1508 10.5985 16.6145 10.5984 16.9005 10.3124C17.1865 10.0263 17.1864 9.56255 16.9003 9.27656C15.724 8.10068 14.1613 7.45312 12.5 7.45312C9.13362 7.45312 6.38323 10.1396 6.27942 13.4812L5.95735 13.1592C5.67136 12.8731 5.20759 12.8731 4.92156 13.1592C4.63552 13.4452 4.63552 13.9089 4.92156 14.195L6.49055 15.764C6.63357 15.907 6.82102 15.9785 7.00842 15.9785C7.19583 15.9785 7.38333 15.907 7.52629 15.764L9.09529 14.195C9.38142 13.9089 9.38142 13.4452 9.09539 13.1592Z" fill="white"/>
<path id="Vector_2" d="M20.3451 5.09941H18.9612C18.6423 5.09941 18.3555 4.92217 18.2134 4.63818L17.9449 4.10083C17.2851 2.7812 15.9586 1.96143 14.4832 1.96143H10.5168C9.04136 1.96143 7.71494 2.7812 7.05493 4.10132L6.7873 4.63691C6.64458 4.92222 6.35776 5.09946 6.03887 5.09946H4.65493C2.08018 5.09941 0 7.1834 0 9.7544V18.3839C0 20.9591 2.08433 23.0389 4.65493 23.0389H20.3451C22.9198 23.0389 25 20.9549 25 18.3839V9.7544C25 7.17925 22.9157 5.09941 20.3451 5.09941ZM23.5352 18.3839C23.5352 20.1735 22.0782 21.574 20.3451 21.574H4.65493C2.92178 21.574 1.46484 20.1735 1.46484 18.3839V9.7544C1.46484 7.96484 2.92183 6.56431 4.65493 6.56431H6.03882C6.91602 6.56431 7.70474 6.07695 8.09795 5.29102L8.36533 4.75596C8.77539 3.93579 9.5998 3.42632 10.5168 3.42632H14.4833C15.4002 3.42632 16.2247 3.93584 16.6345 4.75552L16.9027 5.29238C17.2953 6.07695 18.084 6.56431 18.9612 6.56431H20.3451C22.0783 6.56431 23.5352 7.96489 23.5352 9.7544V18.3839H23.5352Z" fill="white"/>
<path id="Vector_3" d="M18.5095 11.59C18.3665 11.447 18.179 11.3755 17.9916 11.3755C17.8042 11.3755 17.6167 11.447 17.4738 11.59L15.9048 13.159C15.6187 13.4451 15.6187 13.9088 15.9048 14.1948C16.1908 14.4809 16.6545 14.4809 16.9406 14.1948L17.2546 13.8808C17.1474 16.4107 15.056 18.4361 12.5002 18.4361C11.2301 18.4361 10.0351 17.9408 9.13544 17.0415C8.8493 16.7555 8.38558 16.7556 8.09965 17.0417C7.81371 17.3277 7.81381 17.7915 8.09984 18.0774C9.27621 19.2533 10.839 19.9009 12.5002 19.9009C15.8665 19.9009 18.6169 17.2144 18.7207 13.8728L19.0428 14.1948C19.3288 14.4809 19.7926 14.4809 20.0786 14.1948C20.3646 13.9088 20.3646 13.4451 20.0786 13.159L18.5095 11.59Z" fill="white"/>
</g>
</g>
</svg>
