<svg width="26" height="26" viewBox="0 0 26 26" fill="none" xmlns="http://www.w3.org/2000/svg">
<g id="arrow-square-up">
<path id="Icon" d="M16.7895 12.7379L12.5987 8.54708M12.5987 8.54708L8.40792 12.7379M12.5987 8.54708V16.9287M8.19838 22.1671H16.999C18.7593 22.1671 19.6395 22.1671 20.3118 21.8246C20.9032 21.5232 21.3841 21.0424 21.6854 20.451C22.028 19.7786 22.028 18.8985 22.028 17.1382V8.33754C22.028 6.57724 22.028 5.6971 21.6854 5.02475C21.3841 4.43334 20.9032 3.95251 20.3118 3.65117C19.6395 3.30859 18.7593 3.30859 16.999 3.30859H8.19838C6.43808 3.30859 5.55794 3.30859 4.88559 3.65117C4.29418 3.95251 3.81335 4.43334 3.51201 5.02475C3.16943 5.6971 3.16943 6.57724 3.16943 8.33754V17.1382C3.16943 18.8985 3.16943 19.7786 3.51201 20.451C3.81335 21.0424 4.29418 21.5232 4.88559 21.8246C5.55794 22.1671 6.43808 22.1671 8.19838 22.1671Z" stroke="white" stroke-width="1.19737" stroke-linecap="round" stroke-linejoin="round"/>
</g>
</svg>
