<svg class="svg-icon" style="width: 1em; height: 1em;vertical-align: middle;fill: currentColor;overflow: hidden;" viewBox="0 0 24 24" version="1.1" xmlns="http://www.w3.org/2000/svg" width="24" height="24">
    <path d="m7.323 20.661 0.254 0.125A9.93 9.93 0 0 0 12 21.818c5.414 0 9.818 -4.282 9.818 -9.545 0 -5.263 -4.405 -9.545 -9.818 -9.545S2.182 7.01 2.182 12.273c0 2.029 0.656 3.973 1.898 5.623l0.265 0.352 -1.173 3.287zM12 23.455c-1.701 0 -3.344 -0.362 -4.888 -1.078L3.032 23.236a1.364 1.364 0 0 1 -1.564 -1.794l1.044 -2.925C1.223 16.662 0.545 14.512 0.545 12.273c0 -6.166 5.139 -11.182 11.455 -11.182s11.455 5.016 11.455 11.182S18.316 23.455 12 23.455m-4.364 -11.182a1.091 1.091 0 1 1 -2.182 0 1.091 1.091 0 0 1 2.182 0m5.455 0a1.091 1.091 0 1 1 -2.182 0 1.091 1.091 0 0 1 2.182 0m5.455 0a1.091 1.091 0 1 1 -2.182 0 1.091 1.091 0 0 1 2.182 0" fill="#4F4F4F"/>
</svg>