<svg width="21" height="21" viewBox="0 0 21 21" fill="none" xmlns="http://www.w3.org/2000/svg">
<g id="notification 1" clip-path="url(#clip0_445_2510)">
<g id="Group">
<g id="Group_2">
<path id="Vector" d="M3.72521 13.2808V9.29081C3.72521 6.3271 5.62196 3.74276 8.23345 2.77745C8.20296 2.62501 8.18605 2.46923 8.18605 2.3134C8.18599 1.03647 9.22247 0 10.4994 0C11.7763 0 12.8128 1.03647 12.8128 2.3134C12.8128 2.46584 12.7959 2.61822 12.7688 2.76387C13.6663 3.08227 14.4962 3.58693 15.2041 4.27112C16.5386 5.55823 17.2736 7.28902 17.2736 9.14516V13.2808C17.2736 13.4265 17.3921 13.5484 17.5412 13.5484C18.791 13.5484 19.858 14.49 19.9731 15.6891C20.0375 16.3563 19.8173 17.0202 19.3668 17.5147C18.9197 18.0059 18.2796 18.2904 17.6123 18.2904H13.5275C13.3581 19.8112 12.0642 21.0001 10.4994 21.0001C8.93456 21.0001 7.64066 19.8112 7.47131 18.2904H3.38645C2.71917 18.2904 2.07904 18.0059 1.63196 17.5147C1.18488 17.0202 0.964676 16.3563 1.02565 15.6891C1.14081 14.49 2.21111 13.5484 3.45761 13.5484C3.60665 13.5484 3.72521 13.4298 3.72521 13.2808ZM10.4994 1.35481C9.97103 1.35481 9.54086 1.78498 9.54086 2.31334C9.54086 2.35735 9.54765 2.39802 9.55444 2.44202C9.78477 2.40814 10.0185 2.38444 10.2522 2.37765C10.6553 2.36408 11.0516 2.39123 11.4445 2.44542C11.4512 2.40141 11.458 2.36074 11.458 2.31673C11.4579 1.78498 11.0278 1.35481 10.4994 1.35481ZM10.4994 19.6451C11.3157 19.6451 11.9999 19.0625 12.1591 18.2903H8.83976C8.99887 19.0626 9.68306 19.6451 10.4994 19.6451ZM2.37373 15.8177C2.34664 16.1091 2.4381 16.3902 2.63116 16.6035C2.83099 16.8169 3.0952 16.9354 3.38645 16.9354H17.6123C17.9036 16.9354 18.1677 16.8169 18.3642 16.6035C18.5607 16.3902 18.6521 16.109 18.625 15.8177C18.5776 15.3063 18.1 14.9032 17.5412 14.9032C16.647 14.9032 15.9188 14.175 15.9188 13.2808V9.14516C15.9188 7.66161 15.3294 6.2763 14.2625 5.24662C13.243 4.261 11.9152 3.72579 10.4994 3.72579C10.4316 3.72579 10.3673 3.72579 10.2996 3.72919C7.42391 3.83077 5.08002 6.3271 5.08002 9.29081V13.2808C5.08002 14.175 4.35182 14.9032 3.45761 14.9032C2.89876 14.9032 2.42453 15.3063 2.37373 15.8177Z" fill="#4F4F4F"/>
</g>
</g>
</g>
<defs>
<clipPath id="clip0_445_2510">
<rect width="21" height="21" fill="white" transform="matrix(-1 0 0 1 21 0)"/>
</clipPath>
</defs>
</svg>
