<svg width="196" height="20" viewBox="0 0 196 20" fill="none" xmlns="http://www.w3.org/2000/svg">
<g id="Original Long Logo 1" clip-path="url(#clip0_19_364)">
<g id="Element">
<g id="Group">
<path id="Vector" d="M10.7995 3.75697C7.84543 3.75697 3.88043 5.24818 3.88043 9.8068C3.88043 14.3654 7.79036 16.4091 11.4466 16.4091C12.9944 16.4091 14.6524 15.9397 15.6653 15.3042V18.812C14.9061 19.3374 13.022 19.8068 10.9392 19.8068C6.35659 19.8068 0 17.485 0 10.027C0 2.56902 6.83451 0.249146 11.1653 0.249146C13.4428 0.249146 15.1028 0.801589 15.8895 1.35403L14.9612 4.7788C14.0329 4.22635 12.7112 3.75697 10.7975 3.75697H10.7995Z" fill="#403736"/>
<path id="Vector_2" d="M18.6194 0.496399H22.3877V19.5016H18.6194V0.496399Z" fill="#403736"/>
<path id="Vector_3" d="M26.2681 0.496399H31.5842L38.4187 14.2244V0.496399H42.1871V19.5016H37.2367L30.0364 5.08207V19.5016H26.2681V0.496399Z" fill="#403736"/>
<path id="Vector_4" d="M60.13 3.86708H54.393V19.5016H50.6246V3.86708H44.1284L45.0292 0.496399H60.132V3.86708H60.13Z" fill="#403736"/>
<path id="Vector_5" d="M62.2678 0.496399H75.4314L74.5306 3.86708H66.0362V8.06642H73.4332L72.5619 11.4081H66.0362V16.1309H74.8669L75.7953 19.5016H62.2659V0.496399H62.2678Z" fill="#403736"/>
<path id="Vector_6" d="M78.5801 0.496399H86.3429C90.3079 0.496399 92.3907 2.95535 92.3907 6.15991C92.3907 8.75601 91.1811 10.8827 88.4808 11.7114L93.0378 19.5016H88.7345L84.4882 12.0977H82.3504V19.5016H78.582V0.496399H78.5801ZM82.3484 8.94917H85.9476C87.7767 8.94917 88.5634 7.81724 88.5634 6.35307C88.5634 4.97196 87.8042 3.84003 86.0321 3.84003H82.3484V8.9511V8.94917Z" fill="#403736"/>
<path id="Vector_7" d="M101.192 0.496399H106.085L112.666 19.5016H108.672L107.238 15.1651H99.8133L98.35 19.5016H94.5247L101.192 0.496399ZM106.199 12.0436L103.556 4.0332L100.856 12.0436H106.199Z" fill="#403736"/>
<path id="Vector_8" d="M124.62 3.75697C121.666 3.75697 117.701 5.24818 117.701 9.8068C117.701 14.3654 121.611 16.4091 125.267 16.4091C126.815 16.4091 128.473 15.9397 129.486 15.3042V18.812C128.727 19.3374 126.843 19.8068 124.76 19.8068C120.175 19.8068 113.819 17.4869 113.819 10.0289C113.819 2.57095 120.655 0.249146 124.986 0.249146C127.263 0.249146 128.923 0.801589 129.71 1.35403L128.782 4.7788C127.853 4.22635 126.532 3.75697 124.618 3.75697H124.62Z" fill="#403736"/>
<path id="Vector_9" d="M146.951 3.86708H141.017V19.5016H137.249V3.86708H130.752L131.653 0.496399H146.953V3.86708H146.951Z" fill="#403736"/>
<path id="Vector_10" d="M149.285 0.496399H153.054V19.5016H149.285V0.496399Z" fill="#403736"/>
<path id="Vector_11" d="M180.081 0.496399H185.397L192.232 14.2244V0.496399H196V19.5016H191.05L183.849 5.08207V19.5016H180.081V0.496399Z" fill="#403736"/>
<path id="Vector_12" d="M170.587 4.68029C171.764 4.68029 172.717 3.74369 172.717 2.58834C172.717 1.43299 171.764 0.496399 170.587 0.496399C169.411 0.496399 168.457 1.43299 168.457 2.58834C168.457 3.74369 169.411 4.68029 170.587 4.68029Z" fill="#F1471C"/>
<path id="Vector_13" d="M174.582 3.27987C174.372 4.68416 173.441 5.84506 172.184 6.41489C172.814 7.46955 173.134 8.7 173.134 9.94396C173.134 13.3417 170.857 16.6003 166.524 16.6003C162.191 16.6003 159.914 13.3397 159.914 9.94396C159.914 6.54817 162.117 3.50973 166.304 3.40156C166.251 3.11182 166.227 2.81435 166.239 2.50915C166.278 1.55493 166.646 0.69343 167.228 0.0173631C166.996 0.00577336 166.762 -0.00195312 166.522 -0.00195312C159.688 -0.00195312 156.059 4.66677 156.059 9.94203C156.059 15.2173 159.688 19.9961 166.522 19.9961C173.357 19.9961 176.985 15.2733 176.985 9.94203C176.985 7.43865 176.167 5.07435 174.58 3.27794L174.582 3.27987Z" fill="#403736"/>
</g>
</g>
</g>
<defs>
<clipPath id="clip0_19_364">
<rect width="196" height="20" fill="white"/>
</clipPath>
</defs>
</svg>
