<?xml version="1.0" encoding="UTF-8"?>
<svg id="Layer_2" data-name="Layer 2" xmlns="http://www.w3.org/2000/svg" width="379.62" height="69.76" viewBox="0 0 379.62 69.76">
  <defs>
    <style>
      .cls-1 {
        fill: #bc101c;
      }

      .cls-1, .cls-2 {
        stroke-width: 0px;
      }

      .cls-2 {
        fill: #364b96;
      }
    </style>
  </defs>
  <g id="Layer_1-2">
    <g>
      <path fill="#364b96" d="M123.66,28c0,11.13-.01,22.23-.01,33.34-1.83.33-3.86-.04-5.75.09-2.93.08-6.21-.64-7.36-3.69-.42-1.02-.66-2.09-.69-3.19-.1-15.31.04-30.65.02-45.96.23-.31.45-.3.68-.29,3.28.22,6.56.05,9.84.11,2.56-.13,4.78,1.18,6.35,3.08,3.23,3.74,5.69,8.08,8.5,12.13,3.95,5.87,7.88,11.8,11.77,17.66.07-8.77-.07-17.6,0-26.4,0-1.7.67-3.23,1.79-4.53,3.17-3.08,7.96-1.7,11.98-1.99v52.91c-3.38.47-6.99,0-10.46.15-1.78,0-3.55-.54-4.85-1.81-4.06-4.37-6.91-9.69-10.37-14.53-3.88-5.63-7.59-11.53-11.45-17.09Z"/>
      <path fill="#364b96" d="M197.22,61.5c-.2-.4-.15-.67-.14-.92.13-3.53-.41-7.85,3.15-9.92,1.42-.81,3.12-.87,4.72-.94,5.96-.26,12.05.64,17.94-.45,4.66-1.11,3.37-6.41-.63-6.84-8.6-2.56-21.2-2.28-25.6-11.51-.82-2.32-1.54-4.91-1.12-7.37.43-2.99,1.45-6.01,3.46-8.3,8.35-9.96,26.92-6.05,38.72-6.83,0,3.66.76,8.54-2.97,10.69-1.76,1.19-4,.96-6.03,1.04-5.76.28-11.71-.68-17.36.58-1.66.4-2.36,2.16-2.26,3.72.3,2.15,2.58,2.86,4.42,3.23,7.7,2.21,17.32,2.03,22.98,8.42,5.17,6.2,3.27,16.37-3.14,20.98-9.51,6.55-24.89,3.85-36.13,4.42Z"/>
      <path fill="#bc101c" d="M49.06,14.72c-8.69,1.63-23.82,4.58-28.69,12.51-2.21,3.4-.76,7.62,2.92,9.2,7.31,4.04,16.26,3.96,23.39,8.36,1.16.79,1.46,1.93,1.28,3.24-.36,1.55-2.05,2.29-3.27,3.08-1.01.71-2.03-.4-3.02-.68-5.25-2.16-10.76-3.62-16.24-5.11-8.18-2.55-17.87-3.95-23.68-10.81-4.64-6.4.81-14.34,6.39-18.05C24.24,5.43,44.19,3.22,62.98.07c.35-.07.83-.2.97.26.15.54-.68.77-1,1.08-3.59,2.67-16.79,7.5-13.89,13.31Z"/>
      <path fill="#bc101c" d="M50.86,18.39c12.19,6.14,26.58,6.35,38.34,13.47,10.85,6.91,3.93,17.81-4.67,22.91-16.09,9.82-35.27,12.36-53.58,14.99-.82-2.23,18.3-7.92,14.8-14.95.73.34,1.46.15,2.18,0,2.31-.51,4.65-.93,6.92-1.59,6.98-2.08,18.06-4.98,20.45-12.77,1.76-7.44-9.95-9.34-15.08-10.92-4.18-1.21-8.73-1.93-12.27-4.62-3-2.8.11-5.4,2.92-6.52Z"/>
      <path fill="#364b96" d="M186.45,61.63c-4.06-.74-9.27,1.08-12.32-2.53-.85-1.33-1.35-2.74-1.34-4.35-.04-15.44.11-30.88-.13-46.31.25-.24.48-.15.7-.13,1.96.11,3.92.16,5.88.11,2.21.01,4.77.77,6.03,2.68.73,1.33,1.27,2.73,1.26,4.28-.06,15.4.21,30.91-.06,46.25Z"/>
      <path fill="#364b96" d="M301.85,56.94c.29-.4.42-.82.46-1.26.69-5.05,2.66-9.8,3.97-14.71.44-.19.9-.09,1.34-.11.72-.03,1.6-.14,1.65.65,1.16,3.74,2.34,7.46,3.28,11.26.44,1.59.25,3.23.97,4.76.1-.13.24-.24.22-.3-.21-.73.22-1.37.28-2.06.57-4.84,2.43-9.48,3.56-14.21.79-.15,2.6-.15,3.5,0-1.99,6.67-3.83,13.29-5.28,20.13-1.4.31-2.82.04-4.26.1-.6-3.38-1.54-6.52-2.5-9.78-.41-1.37-.75-2.76-1.05-4.16-.04-.18-.06-.37-.28-.47-.21-.02-.19.19-.21.3-.88,4.78-2.67,9.31-3.64,14.08h-4.15c-1.44-6.77-3.41-13.36-5.27-20.06,1.05-.37,2.13-.17,3.14-.23,1.64,3.77,2.45,7.96,3.44,11.97.33,1.36.21,2.79.83,4.08Z"/>
      <path fill="#364b96" d="M347.6,53.13c-.18,2.73,0,5.24-.06,7.98-1.13.19-2.24.09-3.33.08-.13-1.22-.01-19.27.12-20.08.24-.25.56-.2.85-.2,2.34,0,4.68-.05,7.01,0,1.72.03,3.35.46,4.78,1.48,2.45,1.75,2.74,5.54.86,7.83-.56.69-1.3,1.12-2.08,1.51-.33.16-.74.19-.94.55.13.34.47.38.72.52.71.38,1.3.87,1.66,1.62,1.09,2.13,2.16,4.38,2.81,6.68-1.1.15-2.18.15-3.31.11-1.24-2.4-1.66-5.5-4.03-7.13-1.48-1-3.33-.63-5.07-.94ZM347.55,43.83c-.05,2.05-.14,3.93-.11,5.93,0,.22-.05.46.15.6,3.29,0,9.26.67,8-4.46-1.34-3.14-5.28-1.81-8.05-2.07Z"/>
      <path fill="#364b96" d="M322.96,50.66c-.31-6.39,4.93-11.64,11.43-9.58,8.14,1.95,8.28,17.12.57,19.76-7.18,2.49-12.43-3.12-11.99-10.19ZM337.22,51.2c-.1-1.43-.26-2.91-.83-4.33-2.28-5.32-9.4-3.52-9.89,2-.33,2.93-.09,6.76,2.41,8.7,4.73,2.66,8.51-1.57,8.31-6.38Z"/>
      <path fill="#364b96" d="M344.08,29.24h-3.68c-.66-1.94-1.47-3.78-2.46-5.57-1.16-2.5-4.13-2.26-6.46-2.32-.25.17-.2.41-.2.63,0,2.36.02,4.74.02,7.11-.9.24-1.95.27-3.03.09-.11-.78-.13-18.6-.02-20,.17-.21.41-.16.63-.16,2.3,0,4.6-.04,6.91,0,1.36.02,2.69.22,3.96.79,4.53,1.92,4.06,9.19-.86,10.25-.53.27.04.72.4.82,2.7,1.38,3.43,5.76,4.8,8.38ZM331.44,18.61c2.8-.34,7.62.79,8.13-3.09.55-2.6-1.92-3.67-3.98-3.58-1.2-.04-2.41-.02-3.61-.02-.22,0-.46-.08-.62.15-.14,2.05-.1,5.62.07,6.55Z"/>
      <path fill="#364b96" d="M361.15,26.35c.28.98.19,1.85.18,2.67-.2.25-.44.18-.66.18-4.35-.06-8.74.11-13.08-.07-.35-6.52-.09-13.35-.09-19.96.16-.22.35-.23.54-.23,4.37.04,8.76-.09,13.11.04.07.94-.13,1.91-.66,2.98-3.12.07-6.39-.01-9.53.02-.27.83-.33,4.15-.09,5.37,2.72.03,5.39,0,8.14.01.18.95.08,1.84.09,2.77-2.72.28-5.42-.05-8.16.11-.47,1.95-.1,3.98-.19,5.94.33.27.64.18.93.18,3.17,0,6.27-.03,9.45-.03Z"/>
      <path fill="#364b96" d="M271,61.12c-1.23.17-2.38.07-3.59.1-.48-1.33-.95-2.63-1.41-3.91-3.13.03-6.18.08-9.24-.08-.59,1.28-.74,2.65-1.3,3.9-1.19.19-2.36-.01-3.49.16,1.44-4.35,3.49-8.92,5.11-13.35,1.04-2.25,1.37-4.82,2.33-7.01h4.11c2.14,6.89,4.5,13.62,7.48,20.19ZM261.5,44.54c-1.35,3.04-1.79,6.39-3.4,9.37-.08.16-.2.32-.04.54,2.26-.02,4.53-.05,6.91-.07-1.64-3.25-2.5-6.38-3.46-9.84Z"/>
      <path fill="#364b96" d="M379.62,61.18h-3.68c-2.16-3.56-3.96-8.74-8.75-9.01-.26.19-.18.48-.18.73,0,2.66,0,5.34,0,7.99-.86.32-1.5.37-3.21.26-.34-6.67-.08-13.49-.04-20.21,1.01-.16,2.11-.04,3.07-.07.28.27.21.51.21.72-.01,2.7-.05,5.28-.04,8,5.03-.97,6-4.35,8.4-8.24.18-.33.46-.51.83-.48,1.01.09,2.01-.04,2.99-.09.44.38-2.05,3.41-2.31,4.17-1.34,2.4-3.06,4.51-5.56,5.75.13.14.19.25.28.29,1.74.71,2.95,2,3.99,3.52,1.37,2.18,2.92,4.39,4.02,6.66Z"/>
      <path fill="#364b96" d="M320.7,9.02c1.09-.09,2.05-.06,3.08-.02.35,4.26-.03,8.51.02,12.78.06,2.41-.73,4.81-2.72,6.27-2.21,1.72-5.36,1.83-7.97,1.08-4.13-1.16-4.83-5.67-4.85-9.38,0-3.24,0-6.49,0-9.73,0-1,.03-1.03.99-1.06.75-.02,1.49,0,2.15,0,1.09,3.72-1.64,15.23,2.5,16.96,2.57,1.53,6.24.03,6.46-3.11.5-4.64.3-9.1.34-13.8Z"/>
      <path fill="#364b96" d="M270.54,9h3.1c.17,5.05-.68,10.26.6,15.18.94,2.39,4.23,2.88,6.28,1.73,3.69-1.68,1.53-12.9,2.26-16.76.85-.23,1.79-.26,3.04-.1.32,3.77,0,7.77.05,11.61.58,6.11-3.98,10.13-9.96,8.64-3.87-.74-5.58-4.47-5.39-8.14,0-4.06-.14-8.12.02-12.17Z"/>
      <path fill="#364b96" d="M253.56,29.27c-.14-1.02-.12-19.39.02-20.26,4.54-.04,9.01-.02,13.57-.04.06,1.1-.37,1.93-.52,3.04-3.31.05-6.61-.12-9.91,0-.19.92-.2,5.26-.02,6.27h8.62c.02,1.02.01,1.92-.02,2.94-2.98.05-5.68-.13-8.67-.07-.12,2.71,0,5.26-.04,7.98-1.03.21-2,.11-3.02.13Z"/>
      <path fill="#364b96" d="M279.75,44.03c-.2,5.65-.03,11.3-.09,16.96-1.06.42-2.09.15-3.18.22-.53-5.71.12-11.56-.2-17.33-2.1-.23-4.16.16-6.28.03-.05-.99-.32-1.94.02-2.96,5.35.12,10.86-.41,16.12.12.03.85.07,1.78-.04,2.77-2.11.3-4.23-.29-6.34.21Z"/>
      <path fill="#364b96" d="M298.65,29.23c-1.02.05-1.99.1-3.02,0-.16-5.66.01-11.36-.07-17.01-.29-.29-.57-.24-.82-.24-1.92-.11-3.85.28-5.72-.11-.07-.87-.06-1.8,0-2.7,5.26-.44,10.77-.08,16.12-.23.23,1.01.09,1.98.1,2.9-.26.25-.54.17-.8.17-1.93,0-3.77-.08-5.7.02-.18,5.76.07,11.43-.1,17.18Z"/>
    </g>
  </g>
</svg>